<svg width="128" height="128" viewBox="0 0 128 128" fill="none" xmlns="http://www.w3.org/2000/svg">
  <!-- Background -->
  <rect width="128" height="128" rx="16" fill="#0175C2"/>
  
  <!-- Gear icon -->
  <g transform="translate(24, 24)">
    <path d="M40 28.5C40 27.1193 41.1193 26 42.5 26H37.5C38.8807 26 40 27.1193 40 28.5V31.05C41.6 31.35 43.15 31.85 44.55 32.55L46.3 30.8C47.2 29.9 48.7 29.9 49.6 30.8L53.2 34.4C54.1 35.3 54.1 36.8 53.2 37.7L51.45 39.45C52.15 40.85 52.65 42.4 52.95 44H55.5C56.8807 44 58 45.1193 58 46.5V49.5C58 50.8807 56.8807 52 55.5 52H52.95C52.65 53.6 52.15 55.15 51.45 56.55L53.2 58.3C54.1 59.2 54.1 60.7 53.2 61.6L49.6 65.2C48.7 66.1 47.2 66.1 46.3 65.2L44.55 63.45C43.15 64.15 41.6 64.65 40 64.95V67.5C40 68.8807 38.8807 70 37.5 70H42.5C41.1193 70 40 68.8807 40 67.5V64.95C38.4 64.65 36.85 64.15 35.45 63.45L33.7 65.2C32.8 66.1 31.3 66.1 30.4 65.2L26.8 61.6C25.9 60.7 25.9 59.2 26.8 58.3L28.55 56.55C27.85 55.15 27.35 53.6 27.05 52H24.5C23.1193 52 22 50.8807 22 49.5V46.5C22 45.1193 23.1193 44 24.5 44H27.05C27.35 42.4 27.85 40.85 28.55 39.45L26.8 37.7C25.9 36.8 25.9 35.3 26.8 34.4L30.4 30.8C31.3 29.9 32.8 29.9 33.7 30.8L35.45 32.55C36.85 31.85 38.4 31.35 40 31.05V28.5Z" fill="white"/>
    <circle cx="40" cy="48" r="10" fill="#0175C2"/>
  </g>
  
  <!-- Flutter-style decorative elements -->
  <path d="M16 64L28 52L40 64L28 76Z" fill="white" fill-opacity="0.3"/>
  <path d="M88 64L100 52L112 64L100 76Z" fill="white" fill-opacity="0.3"/>
  
  <!-- Bottom text area indicator -->
  <rect x="32" y="96" width="64" height="4" rx="2" fill="white" fill-opacity="0.5"/>
  <rect x="44" y="104" width="40" height="4" rx="2" fill="white" fill-opacity="0.3"/>
</svg>
