<svg width="45" height="43" viewBox="0 0 45 43" fill="none" xmlns="http://www.w3.org/2000/svg">
<path d="M19.266 1.19994C18.0113 1.19994 16.6686 1.95328 15.786 3.17061C14.7926 4.54261 14.1993 6.47462 14.1993 8.33995C14.1993 15.5226 20.9167 19.1053 22.2633 19.7519C23.61 19.1026 30.33 15.5079 30.33 8.33995C30.33 6.47462 29.7367 4.54261 28.7447 3.17061C27.802 1.87195 26.3353 1.09728 25.014 1.20928C24.566 1.24662 24.1407 1.33727 23.69 1.43328C23.2513 1.52661 22.7966 1.62394 22.318 1.66661C21.7326 1.62394 21.278 1.52661 20.8393 1.43328C20.3887 1.33727 19.9647 1.24662 19.5167 1.20928L19.266 1.19994ZM22.2647 21.0626L22.0327 20.9653C21.942 20.9279 12.9993 17.0706 12.9993 8.33995C12.9993 6.23062 13.678 4.03461 14.8153 2.46661C16.014 0.810608 17.85 -0.124044 19.6127 0.0132885C20.1393 0.0559559 20.622 0.158617 21.09 0.258617C21.4967 0.346617 21.9006 0.433279 22.318 0.470613C22.63 0.433279 23.0327 0.346617 23.4393 0.258617C23.9073 0.158617 24.3913 0.0559559 24.9167 0.0132885C26.6713 -0.124044 28.5153 0.810608 29.7153 2.46661C30.8527 4.03461 31.5313 6.23062 31.5313 8.33995C31.5313 17.0706 22.5887 20.9279 22.4967 20.9653L22.2647 21.0626Z" fill="#E4C27C"/>
<path d="M8.66197 9.7853C7.7873 9.7853 6.93396 9.90663 6.17396 10.1533C4.64863 10.6466 3.4633 11.8026 3.15663 13.0946C3.05263 13.5333 3.0073 13.9653 2.9593 14.4226C2.91397 14.8706 2.86597 15.332 2.7593 15.8C2.53663 16.3426 2.30464 16.7453 2.0793 17.1333C1.84864 17.532 1.6313 17.9093 1.45796 18.324C0.944631 19.5493 1.22596 21.18 2.16996 22.4773C3.16729 23.8466 4.82063 25.008 6.5953 25.584C13.4273 27.8026 18.9113 22.5213 19.9406 21.44C19.742 19.9586 18.3966 12.456 11.5806 10.2426C10.6446 9.9373 9.6393 9.7853 8.66197 9.7853ZM9.94864 27.3226C8.7633 27.3226 7.51663 27.1453 6.22463 26.7253C4.21796 26.0733 2.34062 24.7506 1.20062 23.184C-0.0047095 21.5306 -0.330027 19.4906 0.349973 17.8613C0.552639 17.3746 0.80063 16.9466 1.04063 16.532C1.24996 16.172 1.45663 15.816 1.62063 15.4306C1.68196 15.1226 1.72331 14.7133 1.76597 14.3C1.81664 13.8226 1.8673 13.3306 1.98863 12.8186C2.3953 11.1 3.85796 9.64131 5.80596 9.01197C7.6473 8.41597 9.94462 8.44929 11.9513 9.09996C20.2566 11.7986 21.1593 21.496 21.1673 21.5933L21.1886 21.844L21.0246 22.0346C20.97 22.0973 16.3766 27.3226 9.94864 27.3226Z" fill="#E4C27C"/>
<path d="M5.84197 33.776C5.83931 35.38 6.57131 36.8639 7.70731 37.5546C8.09131 37.7893 8.48731 37.9666 8.90997 38.1519C9.31797 38.3359 9.7433 38.5239 10.154 38.7693C10.6033 39.1493 10.9153 39.4946 11.214 39.828C11.522 40.1706 11.814 40.4933 12.154 40.7866C13.162 41.6519 14.7993 41.8893 16.3246 41.392C17.9326 40.868 19.5486 39.6533 20.6473 38.144C24.8686 32.332 21.5393 25.4853 20.8286 24.1706C19.3606 23.9039 11.8113 22.864 7.59664 28.6613C6.49931 30.1706 5.84331 32.084 5.84197 33.776ZM14.7126 42.8546C13.446 42.8546 12.2566 42.456 11.3726 41.6973C10.9726 41.3546 10.642 40.9866 10.322 40.6306C10.0433 40.3213 9.76863 40.0133 9.45263 39.7373C9.1793 39.5853 8.80197 39.4186 8.42197 39.2493C7.98464 39.0559 7.53265 38.8546 7.08198 38.58C5.57398 37.6626 4.63931 35.8213 4.64197 33.7746C4.64464 31.8386 5.38464 29.6626 6.62464 27.9559C11.758 20.8933 21.2593 23.0306 21.354 23.0519L21.5993 23.1093L21.73 23.324C21.7806 23.4093 26.75 31.7853 21.6166 38.8493C20.3766 40.5559 18.5393 41.9333 16.698 42.5346C16.0366 42.7493 15.3646 42.8546 14.7126 42.8546Z" fill="#E4C27C"/>
<path d="M28.2033 41.392C29.7326 41.8906 31.3686 41.6519 32.3753 40.7866C32.7166 40.4933 33.0073 40.1706 33.3153 39.8266C33.6153 39.4933 33.926 39.1493 34.2873 38.8333C34.786 38.5239 35.2086 38.3359 35.6193 38.1533C36.0406 37.9666 36.438 37.7893 36.822 37.5546C37.958 36.8639 38.69 35.38 38.6886 33.776C38.686 32.084 38.03 30.1706 36.9326 28.6613C32.722 22.864 25.17 23.9026 23.7006 24.1706C22.9913 25.4879 19.67 32.3453 23.882 38.144C24.9806 39.6533 26.5953 40.868 28.2046 41.392H28.2033ZM29.8166 42.8546C29.1646 42.8546 28.4926 42.7493 27.8326 42.5346C25.9913 41.9333 24.1513 40.5559 22.9126 38.8493C17.7793 31.7853 22.7486 23.4093 22.7993 23.324L22.93 23.1093L23.1753 23.0519C23.2673 23.0293 32.7726 20.8933 37.9046 27.9559C39.1446 29.6626 39.886 31.8386 39.8886 33.7746C39.89 35.8213 38.9553 37.6626 37.4473 38.58C36.9966 38.8546 36.5433 39.0559 36.1073 39.2493C35.726 39.4199 35.35 39.5853 34.9886 39.7999C34.7606 40.0133 34.486 40.32 34.2073 40.6293C33.8873 40.9853 33.558 41.3546 33.1566 41.6973C32.2726 42.456 31.0833 42.8546 29.8166 42.8546Z" fill="#E4C27C"/>
<path d="M24.5873 21.4386C25.6193 22.5186 31.118 27.7973 37.934 25.584C39.7073 25.008 41.3633 23.8466 42.3593 22.4773C43.3046 21.18 43.5846 19.5493 43.0726 18.324C42.898 17.9093 42.6806 17.5333 42.45 17.1346C42.226 16.7453 41.9926 16.344 41.8046 15.9013C41.6633 15.332 41.6153 14.8706 41.57 14.4226C41.522 13.9653 41.4766 13.5333 41.3726 13.0946C41.066 11.8026 39.882 10.6466 38.3553 10.1533C36.746 9.6333 34.7246 9.66664 32.9486 10.2426C26.118 12.4613 24.786 19.9586 24.5873 21.4386ZM34.582 27.3226C28.1513 27.3226 23.5593 22.0973 23.506 22.0346L23.3406 21.844L23.362 21.5933C23.37 21.496 24.274 11.7986 32.5793 9.09996C34.5846 8.44929 36.882 8.41464 38.7246 9.01197C40.6713 9.64131 42.134 11.1 42.5393 12.8186C42.662 13.3306 42.714 13.8226 42.762 14.3C42.8073 14.7133 42.8486 15.1226 42.9406 15.532C43.0726 15.816 43.2806 16.1733 43.4886 16.5346C43.7286 16.948 43.9766 17.376 44.1793 17.8613C44.8606 19.4906 44.5353 21.5306 43.33 23.184C42.19 24.7506 40.3113 26.0733 38.3046 26.7253C37.0126 27.1453 35.7646 27.3226 34.582 27.3226Z" fill="#E4C27C"/>
<path d="M20.4086 0.85594C19.338 3.61194 19.2406 6.52794 20.0953 9.3546C20.3286 10.1293 21.5446 9.79994 21.31 9.01994C20.5126 6.3826 20.6286 3.75594 21.6246 1.19061C21.918 0.434608 20.7006 0.106607 20.4086 0.85594Z" fill="#E4C27C"/>
<path d="M20.6487 11.4999C20.8753 12.4666 21.2246 13.3893 21.6806 14.2719C22.0526 14.9919 23.142 14.3559 22.7686 13.6359C22.362 12.8466 22.0673 12.0279 21.8633 11.1653C21.6766 10.3759 20.4607 10.7093 20.6487 11.4999Z" fill="#E4C27C"/>
<path d="M35.298 39.2333C34.9687 36.2346 33.7193 33.5599 31.5913 31.4159C31.0193 30.8399 30.1273 31.7306 30.7006 32.3066C32.582 34.2013 33.746 36.5719 34.038 39.2333C34.126 40.0306 35.3873 40.0399 35.298 39.2333Z" fill="#E4C27C"/>
<path d="M30.1033 29.7746C29.45 29.0239 28.7127 28.3773 27.8967 27.8079C27.23 27.3426 26.5993 28.4346 27.2606 28.8959C27.9873 29.4039 28.6313 29.9973 29.2113 30.6666C29.746 31.2786 30.634 30.3839 30.1033 29.7746Z" fill="#E4C27C"/>
<path d="M10.614 39.2266C11.21 35.248 13.806 31.8919 17.5833 30.4426C18.3327 30.1546 18.0073 28.936 17.2487 29.2266C13.078 30.8266 10.0647 34.4506 9.39932 38.8906C9.27932 39.6839 10.494 40.0266 10.614 39.2266Z" fill="#E4C27C"/>
<path d="M31.762 20.3786C34.49 17.3666 38.4166 16.0519 42.4046 16.8946C43.1966 17.0613 43.5353 15.8466 42.7407 15.6786C38.3353 14.7493 33.902 16.1413 30.87 19.4866C30.3273 20.0866 31.2167 20.9799 31.762 20.3786Z" fill="#E4C27C"/>
<path d="M12.69 17.4906C14.2327 17.8986 15.5967 18.6466 16.7607 19.7413C17.3513 20.2973 18.2446 19.4066 17.6513 18.8493C16.334 17.6106 14.7727 16.7373 13.0247 16.2746C12.2393 16.068 11.9047 17.2826 12.69 17.4906Z" fill="#E4C27C"/>
<path d="M7.2593 16.9893C8.24464 16.9199 9.22464 16.9439 10.2073 17.0613C11.01 17.1559 11.002 15.8946 10.2073 15.7999C9.22464 15.6839 8.24464 15.6599 7.2593 15.7293C6.45397 15.7866 6.4473 17.0466 7.2593 16.9893Z" fill="#E4C27C"/>
<path d="M22.2513 16.9733C21.5033 16.9733 20.894 17.5826 20.894 18.3306C20.894 19.0786 21.5033 19.6879 22.2513 19.6879C22.998 19.6879 23.6073 19.0786 23.6073 18.3306C23.6073 17.5826 22.998 16.9733 22.2513 16.9733ZM22.2513 20.8866C20.8406 20.8866 19.694 19.7399 19.694 18.3306C19.694 16.9199 20.8406 15.7733 22.2513 15.7733C23.6606 15.7733 24.8086 16.9199 24.8086 18.3306C24.8086 19.7399 23.6606 20.8866 22.2513 20.8866Z" fill="#E4C27C"/>
<path d="M19.0153 19.3519C18.8046 19.3519 18.5953 19.4013 18.4006 19.5013C18.078 19.6653 17.8393 19.9453 17.7273 20.2893C17.4953 21.0013 17.886 21.7679 18.5966 21.9999C19.3086 22.2306 20.0766 21.84 20.3073 21.128C20.5393 20.4173 20.1486 19.6493 19.4366 19.4186C19.298 19.3733 19.1553 19.3519 19.0153 19.3519ZM19.0193 23.2679C18.754 23.2679 18.486 23.2253 18.2273 23.1413C16.886 22.7053 16.15 21.2586 16.586 19.9186C16.7966 19.2693 17.2473 18.7413 17.8566 18.4306C18.4646 18.1213 19.1593 18.0666 19.8073 18.2773C20.4566 18.488 20.9846 18.94 21.2953 19.548C21.6046 20.1573 21.6593 20.8493 21.4486 21.4986C21.238 22.1493 20.786 22.6773 20.178 22.9879C19.8126 23.1733 19.418 23.2679 19.0193 23.2679Z" fill="#E4C27C"/>
<path d="M20.2833 23.1626L20.0687 23.1799C19.71 23.2373 19.3953 23.4293 19.1833 23.7226C18.97 24.0159 18.8833 24.3746 18.9393 24.7333C18.9967 25.0893 19.19 25.4039 19.4833 25.6173C19.7767 25.8306 20.1393 25.9173 20.4927 25.8599C20.8513 25.8026 21.1647 25.6106 21.378 25.3173C21.818 24.7119 21.6833 23.8626 21.078 23.4226C20.8433 23.2519 20.5673 23.1626 20.2833 23.1626ZM20.2753 27.0773C19.7393 27.0773 19.2193 26.9093 18.7767 26.5879C18.2247 26.1879 17.862 25.5946 17.7553 24.9199C17.6487 24.2453 17.8113 23.5706 18.2113 23.0173C18.614 22.4639 19.2073 22.1013 19.8807 21.9946C20.554 21.8893 21.23 22.0493 21.7833 22.4519C22.9247 23.2799 23.1767 24.8826 22.3487 26.0226C21.9473 26.5759 21.3553 26.9386 20.6807 27.0453C20.5447 27.0666 20.41 27.0773 20.2753 27.0773Z" fill="#E4C27C"/>
<path d="M24.2927 23.1386C24.0073 23.1386 23.7313 23.2279 23.4967 23.3986C23.2047 23.6106 23.0113 23.9253 22.954 24.2839C22.898 24.6413 22.9847 25 23.198 25.2933C23.4113 25.5866 23.7247 25.7786 24.082 25.8359C24.442 25.8893 24.7993 25.8053 25.0927 25.5933C25.3847 25.38 25.578 25.0666 25.6353 24.708C25.6913 24.3493 25.6047 23.9919 25.3927 23.6986C25.1793 23.4053 24.8647 23.212 24.5073 23.156L24.2927 23.1386ZM24.3006 27.0533C24.1646 27.0533 24.03 27.0426 23.8953 27.0213C23.2193 26.9146 22.6273 26.5519 22.226 25.9986C21.8247 25.4466 21.662 24.7706 21.7686 24.096C21.8753 23.4213 22.2393 22.8293 22.7913 22.428C23.3447 22.0253 24.0207 21.864 24.6953 21.9706C25.37 22.0786 25.962 22.44 26.3633 22.9933C26.7647 23.5453 26.926 24.2213 26.8193 24.896C26.7126 25.5706 26.35 26.1626 25.798 26.5653C25.3567 26.8853 24.8353 27.0533 24.3006 27.0533Z" fill="#E4C27C"/>
<path d="M25.5113 19.3133C25.374 19.3133 25.2327 19.3346 25.094 19.38C24.3807 19.6106 23.99 20.3786 24.222 21.0893C24.334 21.4333 24.574 21.7146 24.8967 21.8786C25.2207 22.0453 25.5887 22.0733 25.9313 21.9613C26.2767 21.8493 26.5566 21.6093 26.7206 21.2866C26.886 20.964 26.9153 20.596 26.8033 20.2506C26.6166 19.6786 26.0847 19.3133 25.5113 19.3133ZM25.51 23.228C25.1113 23.228 24.7166 23.1346 24.3513 22.948C23.7433 22.6386 23.2913 22.1106 23.0807 21.4613C22.87 20.8106 22.9246 20.1186 23.234 19.5093C23.5433 18.9013 24.0726 18.4493 24.722 18.2373C25.3726 18.0266 26.066 18.0826 26.6726 18.392C27.282 18.7013 27.734 19.2306 27.9447 19.88C28.1553 20.5293 28.1006 21.2226 27.7913 21.832C27.482 22.44 26.9526 22.8906 26.3033 23.1013C26.042 23.1866 25.7753 23.228 25.51 23.228Z" fill="#E4C27C"/>
<path d="M22.2513 20.34C21.5033 20.34 20.894 20.948 20.894 21.696C20.894 22.444 21.5033 23.0533 22.2513 23.0533C22.998 23.0533 23.6073 22.444 23.6073 21.696C23.6073 20.948 22.998 20.34 22.2513 20.34ZM22.2513 24.2533C20.8406 24.2533 19.694 23.1066 19.694 21.696C19.694 20.2866 20.8406 19.1386 22.2513 19.1386C23.6606 19.1386 24.8086 20.2866 24.8086 21.696C24.8086 23.1066 23.6606 24.2533 22.2513 24.2533Z" fill="#E4C27C"/>
</svg>
